<svg xmlns="http://www.w3.org/2000/svg" viewBox="0 0 1000 170" width="1000" height="170">
  <!-- Yellow background -->
  <rect width="1000" height="170" fill="#F5E642"/>

  <!-- Scribble edge texture — top -->
  <g stroke="#D4C000" stroke-width="3.5" stroke-linecap="round" fill="none" opacity="0.8">
    <path d="M0,7 Q25,1 50,8 Q75,1 100,7 Q125,1 150,8 Q175,1 200,7 Q225,1 250,8 Q275,1 300,7 Q325,1 350,8 Q375,1 400,7 Q425,1 450,8 Q475,1 500,7 Q525,1 550,8 Q575,1 600,7 Q625,1 650,8 Q675,1 700,7 Q725,1 750,8 Q775,1 800,7 Q825,1 850,8 Q875,1 900,7 Q925,1 950,8 Q975,1 1000,7"/>
    <path d="M0,14 Q25,8 50,15 Q75,8 100,14 Q125,8 150,15 Q175,8 200,14 Q225,8 250,15 Q275,8 300,14 Q325,8 350,15 Q375,8 400,14 Q425,8 450,15 Q475,8 500,14 Q525,8 550,15 Q575,8 600,14 Q625,8 650,15 Q675,8 700,14 Q725,8 750,15 Q775,8 800,14 Q825,8 850,15 Q875,8 900,14 Q925,8 950,15 Q975,8 1000,14"/>
    <path d="M0,21 Q25,15 50,22 Q75,15 100,21 Q125,15 150,22 Q175,15 200,21 Q225,15 250,22 Q275,15 300,21 Q325,15 350,22 Q375,15 400,21 Q425,15 450,22 Q475,15 500,21 Q525,15 550,22 Q575,15 600,21 Q625,15 650,22 Q675,15 700,21 Q725,15 750,22 Q775,15 800,21 Q825,15 850,22 Q875,15 900,21 Q925,15 950,22 Q975,15 1000,21"/>
    <!-- Bottom -->
    <path d="M0,149 Q25,155 50,148 Q75,155 100,149 Q125,155 150,148 Q175,155 200,149 Q225,155 250,148 Q275,155 300,149 Q325,155 350,148 Q375,155 400,149 Q425,155 450,148 Q475,155 500,149 Q525,155 550,148 Q575,155 600,149 Q625,155 650,148 Q675,155 700,149 Q725,155 750,148 Q775,155 800,149 Q825,155 850,148 Q875,155 900,149 Q925,155 950,148 Q975,155 1000,149"/>
    <path d="M0,156 Q25,162 50,155 Q75,162 100,156 Q125,162 150,155 Q175,162 200,156 Q225,162 250,155 Q275,162 300,156 Q325,162 350,155 Q375,162 400,156 Q425,162 450,155 Q475,162 500,156 Q525,162 550,155 Q575,162 600,156 Q625,162 650,155 Q675,162 700,156 Q725,162 750,155 Q775,162 800,156 Q825,162 850,155 Q875,162 900,156 Q925,162 950,155 Q975,162 1000,156"/>
    <path d="M0,163 Q25,169 50,162 Q75,169 100,163 Q125,169 150,162 Q175,169 200,163 Q225,169 250,162 Q275,169 300,163 Q325,169 350,162 Q375,169 400,163 Q425,169 450,162 Q475,169 500,163 Q525,169 550,162 Q575,169 600,163 Q625,169 650,162 Q675,169 700,163 Q725,169 750,162 Q775,169 800,163 Q825,169 850,162 Q875,169 900,163 Q925,169 950,162 Q975,169 1000,163"/>
  </g>

  <!-- "dev:" — pink/magenta, bold serif -->
  <text
    x="22"
    y="128"
    font-family="Georgia, 'Times New Roman', serif"
    font-size="108"
    font-weight="bold"
    fill="#E8117F"
    letter-spacing="-1"
  >dev:</text>

  <!-- "congress{};" — dark charcoal, bold serif -->
  <text
    x="278"
    y="128"
    font-family="Georgia, 'Times New Roman', serif"
    font-size="108"
    font-weight="bold"
    fill="#4A4A4A"
    letter-spacing="-1"
  >congress{};</text>
</svg>
